#!OML:ASF Y:\EmotionMaleHayes\Project 1\Capture day 1\Session 1\Male1.ASF
:FULLY-SPECIFIED
:DEGREES
1693
root 29.8817 17.0348 -17.0456 184.264 -81.5346 174.799
lowerback 9.31677 2.13333 -3.70823
upperback 4.18083 2.37752 0.586719
thorax -1.05571 1.07902 2.4488
lowerneck -23.6395 8.76512 6.2233
upperneck 37.4097 12.6955 -6.91486
head 19.3133 4.51498 -1.52801
rclavicle -7.47927e-015 7.7526e-015
rhumerus -55.5495 18.6822 -79.5124
rradius 68.2152
rwrist -15.0235
rhand -8.92078 -41.4335
rfingers 7.12502
rthumb 17.0227 -70.7076
lclavicle -7.47927e-015 7.7526e-015
lhumerus -25.9594 -39.5522 80.7944
lradius 88.0115
lwrist 6.8655
lhand -29.1562 -40.3581
lfingers 7.12502
lthumb -2.50252 -10.393
rfemur 1.18927 -10.5342 12.8702
rtibia 19.7843
rfoot -22.0195 -8.1569
rtoes 7.70253
lfemur 0.606935 8.74751 -19.1607
ltibia 54.4497
lfoot 3.02193 -5.58634
ltoes -3.97212
1694
root 29.7818 16.9908 -17.031 170.809 -81.5213 188.381
lowerback 9.77711 2.13173 -1.38058
upperback 4.3633 2.56228 1.30375
thorax -1.06817 1.18175 1.85291
lowerneck -23.7125 8.68902 6.31401
upperneck 37.1322 12.6974 -7.31417
head 19.2272 4.48506 -1.72309
rclavicle -1.18277e-014 4.17448e-015
rhumerus -53.3204 18.092 -79.4973
rradius 67.4788
rwrist -13.6202
rhand -10.8738 -41.9927
rfingers 7.12502
rthumb 15.142 -71.4187
lclavicle -1.18277e-014 4.17448e-015
lhumerus -28.4095 -37.6497 83.5036
lradius 87.2907
lwrist 6.41625
lhand -29.0944 -40.6527
lfingers 7.12502
lthumb -2.44285 -10.687
rfemur 1.57829 -10.5401 15.1831
rtibia 19.6811
rfoot -22.2242 -8.41793
rtoes 5.94347
lfemur -1.52283 9.58392 -16.4298
ltibia 56.9818
lfoot 1.3455 -5.01993
ltoes -6.14242
1695
root 29.6851 16.9529 -17.0131 162.305 -81.5451 197.238
lowerback 9.89572 2.0792 0.202779
upperback 4.54105 2.62111 1.75584
thorax -0.9017 1.21636 1.4256
lowerneck -23.7652 8.57768 6.43554
upperneck 36.6719 12.5474 -7.5398
head 18.9892 4.43918 -1.86971
rclavicle -6.16232e-015 3.18055e-015
rhumerus -50.7211 17.3183 -79.4773
rradius 66.453
rwrist -11.8503
rhand -12.0712 -41.7716
rfingers 7.12502
rthumb 13.9884 -71.281
lclavicle -6.16232e-015 3.18055e-015
lhumerus -30.7624 -35.4642 85.9243
lradius 86.5635
lwrist 5.27783
lhand -28.8735 -40.1577
lfingers 7.12502
lthumb -2.22953 -10.1896
rfemur 1.66089 -10.9425 16.5276
rtibia 19.809
rfoot -22.5726 -8.29049
rtoes 5.4343
lfemur -4.11112 10.2048 -14.8044
ltibia 59.1617
lfoot -0.256121 -4.18685
ltoes -8.42081
1696
root 29.5987 16.9126 -17.0082 151.659 -80.7892 207.91
lowerback 10.6831 2.13292 2.01178
upperback 4.61938 2.85665 2.37159
thorax -1.19475 1.33503 0.998176
lowerneck -23.5245 8.59842 7.06358
upperneck 36.2816 12.5619 -8.19898
head 18.8439 4.46525 -2.27968
rclavicle 1.19271e-014 -7.95139e-015
rhumerus -48.2194 16.6897 -79.6389
rradius 65.1452
rwrist -10.1176
rhand -12.4248 -42.5905
rfingers 7.12502
rthumb 13.6476 -72.1231
lclavicle 1.19271e-014 -7.95139e-015
lhumerus -33.1205 -33.013 88.0644
lradius 85.5453
lwrist 4.12567
lhand -27.9091 -39.0875
lfingers 7.12502
lthumb -1.29814 -9.1117
rfemur 2.039 -10.4481 18.7445
rtibia 19.857
rfoot -23.0716 -8.38311
rtoes 6.70738
lfemur -6.33189 11.3147 -12.2167
ltibia 61.0822
lfoot -1.67892 -3.27744
ltoes -9.26943
1697
root 29.5133 16.8787 -16.9913 148.614 -80.8125 211.119
lowerback 11.2528 2.0974 2.63645
upperback 4.45202 2.90002 2.57964
thorax -1.65688 1.35394 0.835244
lowerneck -22.6866 8.4747 7.68857
upperneck 35.7956 12.3876 -8.93392
head 18.4744 4.42343 -2.78342
rclavicle -2.26615e-014 1.74931e-014
rhumerus -46.0228 16.1815 -79.9612
rradius 63.7049
rwrist -8.62766
rhand -13.5154 -42.0377
rfingers 7.12502
rthumb 12.5963 -71.6379
lclavicle -2.26615e-014 1.74931e-014
lhumerus -35.7188 -30.3107 90.0829
lradius 84.2953
lwrist 3.03085
lhand -27.5926 -38.21
lfingers 7.12502
lthumb -0.992481 -8.23259
rfemur 2.32684 -10.9836 18.9638
rtibia 19.8355
rfoot -23.2651 -8.0926
rtoes 6.17959
lfemur -8.86532 11.9449 -11.673
ltibia 62.6563
lfoot -3.14675 -2.08115
ltoes -8.48407
1698
root 29.4353 16.856 -16.9957 143.621 -80.5689 216.14
lowerback 12.0971 2.11515 3.44393
upperback 4.28955 3.05504 2.86742
thorax -2.25533 1.42013 0.629098
lowerneck -21.4225 8.42437 8.40958
upperneck 35.0812 12.2829 -9.62696
head 17.8839 4.44972 -3.25817
rclavicle -4.84041e-014 -3.61788e-014
rhumerus -43.8527 15.0922 -80.0989
rradius 62.7095
rwrist -5.2809
rhand -13.0396 -41.7285
rfingers 7.12502
rthumb 13.055 -71.3
lclavicle -4.84041e-014 -3.61788e-014
lhumerus -38.1284 -27.607 91.6989
lradius 82.8315
lwrist 1.86279
lhand -27.9423 -37.717
lfingers 7.12502
lthumb -1.33017 -7.74138
rfemur 2.69098 -10.6877 19.9728
rtibia 19.6859
rfoot -23.5597 -8.75154
rtoes 5.2113
lfemur -11.4045 12.6827 -10.4699
ltibia 64.1561
lfoot -4.77387 -1.17011
ltoes -7.0974
1699
root 29.3587 16.8435 -16.9999 140.82 -80.5539 218.839
lowerback 13.073 2.07186 3.562
upperback 4.53496 3.02989 3.1775
thorax -2.53777 1.38852 0.860727
lowerneck -22.0651 8.51783 8.85148
upperneck 34.8826 12.4819 -10.2946
head 18.089 4.48642 -3.57546
rclavicle 1.09332e-015 -3.10104e-014
rhumerus -41.3025 15.1432 -80.677
rradius 61.6365
rwrist -6.50404
rhand -15.7559 -42.9261
rfingers 7.12502
rthumb 10.4356 -72.6471
lclavicle 1.09332e-015 -3.10104e-014
lhumerus -39.3534 -24.1405 92.6006
lradius 80.9979
lwrist 0.683647
lhand -28.4697 -37.0666
lfingers 7.12502
lthumb -1.83956 -7.09476
rfemur 3.12727 -10.4186 20.4297
rtibia 19.6275
rfoot -23.8982 -9.21956
rtoes 5.57358
lfemur -13.8845 13.3619 -9.88122
ltibia 65.4069
lfoot -6.388 -0.349573
ltoes -6.72382
1700
root 29.2696 16.8245 -16.9994 140.109 -80.8085 219.497
lowerback 13.7183 2.0182 3.32219
upperback 4.89058 2.92048 3.34789
thorax -2.53551 1.31985 1.17557
lowerneck -22.378 8.5885 8.51464
upperneck 34.285 12.711 -10.3523
head 17.8452 4.54093 -3.44639
rclavicle 2.24627e-014 2.62396e-014
rhumerus -38.4505 14.9437 -80.9881
rradius 60.2312
rwrist -7.0334
rhand -18.7868 -41.1236
rfingers 7.12502
rthumb 7.51092 -70.9703
lclavicle 2.24627e-014 2.62396e-014
lhumerus -40.1128 -20.401 93.0847
lradius 78.8236
lwrist -0.623898
lhand -28.5183 -35.595
lfingers 7.12502
lthumb -1.88651 -5.62358
rfemur 3.61511 -10.3899 20.2244
rtibia 19.4801
rfoot -24.2009 -9.42458
rtoes 5.92525
lfemur -16.3406 13.8849 -10.0039
ltibia 66.225
lfoot -7.81972 0.696258
ltoes -7.14211
1701
root 29.1741 16.8043 -17.0021 138.43 -80.8795 221.198
lowerback 14.2065 2.09752 3.55781
upperback 5.20073 3.03989 3.30162
thorax -2.45544 1.37194 0.967635
lowerneck -22.2288 8.38816 8.48333
upperneck 33.3803 12.342 -10.2834
head 17.2534 4.44697 -3.44892
rclavicle 1.48095e-014 -2.70347e-014
rhumerus -35.6402 13.4357 -81.3042
rradius 59.6848
rwrist -4.92935
rhand -17.9051 -44.0605
rfingers 7.12502
rthumb 8.36196 -73.8749
lclavicle 1.48095e-014 -2.70347e-014
lhumerus -40.7047 -17.4934 93.0826
lradius 76.4065
lwrist -2.15449
lhand -28.0709 -32.9788
lfingers 7.12502
lthumb -1.45438 -3.00396
rfemur 4.14735 -10.4048 20.3278
rtibia 19.1679
rfoot -24.3876 -9.77392
rtoes 4.70273
lfemur -18.7065 14.4118 -9.85516
ltibia 66.5745
lfoot -8.97746 1.92184
ltoes -6.94499
1702
root 29.0778 16.7892 -17.0045 135.711 -80.7535 224.015
lowerback 14.7613 2.17266 4.22336
upperback 5.08826 3.26318 3.21646
thorax -2.82385 1.47846 0.449152
lowerneck -21.0998 8.08148 9.01264
upperneck 32.5764 11.7433 -10.5107
head 16.5468 4.30795 -3.76428
rclavicle 1.16289e-014 -4.77083e-015
rhumerus -34.088 11.7957 -81.9852
rradius 59.7464
rwrist -3.73765
rhand -17.9553 -44.1692
rfingers 7.12502
rthumb 8.31349 -73.9856
lclavicle 1.16289e-014 -4.77083e-015
lhumerus -42.1822 -14.8444 93.03
lradius 74.1055
lwrist -3.98568
lhand -28.4238 -29.4844
lfingers 7.12502
lthumb -1.7952 0.487776
rfemur 4.6143 -10.4046 20.7771
rtibia 18.8404
rfoot -24.4609 -10.1587
rtoes 3.22324
lfemur -21.0777 14.8907 -9.44277
ltibia 66.6405
lfoot -10.132 3.11909
ltoes -5.57438
1703
root 28.9755 16.7784 -17.0049 133.777 -80.4467 226.068
lowerback 15.2925 2.20459 4.71359
upperback 5.14528 3.39228 3.2558
thorax -3.01584 1.53306 0.177225
lowerneck -20.9833 8.07776 9.29579
upperneck 32.2068 11.6835 -10.7003
head 16.3667 4.31212 -3.89418
rclavicle -6.36111e-015 -1.47101e-014
rhumerus -32.37 10.6737 -82.6286
rradius 60.1178
rwrist -3.22335
rhand -18.7635 -41.6535
rfingers 7.12502
rthumb 7.5334 -71.4994
lclavicle -6.36111e-015 -1.47101e-014
lhumerus -43.2888 -11.7971 92.6645
lradius 71.8927
lwrist -6.06475
lhand -28.4113 -25.1673
lfingers 7.12502
lthumb -1.78313 4.80502
rfemur 4.98175 -10.1726 21.3142
rtibia 18.6428
rfoot -24.7167 -10.3148
rtoes 3.15116
lfemur -23.2855 15.5099 -8.99324
ltibia 66.4029
lfoot -11.5074 4.13285
ltoes -5.37561
1704
root 28.8589 16.7687 -17.0043 133.249 -80.0843 226.673
lowerback 15.5431 2.18111 4.73972
upperback 5.48806 3.33687 3.47446
thorax -2.7992 1.49684 0.400649
lowerneck -21.2971 8.22576 9.00394
upperneck 31.8149 11.9506 -10.6144
head 16.2514 4.40357 -3.7178
rclavicle 4.27387e-015 -1.59028e-015
rhumerus -30.2624 10.3978 -83.2169
rradius 60.5993
rwrist -3.31819
rhand -19.1296 -40.4353
rfingers 7.12502
rthumb 7.18009 -70.2935
lclavicle 4.27387e-015 -1.59028e-015
lhumerus -44.0397 -8.17767 92.1385
lradius 69.8379
lwrist -8.21705
lhand -27.2286 -20.4512
lfingers 7.12502
lthumb -0.640886 9.52757
rfemur 5.4221 -9.72535 21.7046
rtibia 18.4938
rfoot -25.4009 -10.1372
rtoes 5.3616
lfemur -25.0523 16.2988 -8.59815
ltibia 65.4076
lfoot -12.6194 5.27334
ltoes -7.79314
1705
root 28.739 16.757 -17.0043 132.772 -79.8427 227.183
lowerback 15.7105 2.00643 4.64772
upperback 6.08133 3.02538 3.70513
thorax -2.28405 1.33199 0.755176
lowerneck -22.0279 8.54633 8.4298
upperneck 31.364 12.6532 -10.7729
head 16.2681 4.59222 -3.49256
rclavicle 1.98785e-016 7.55382e-015
rhumerus -27.7046 10.801 -83.9157
rradius 61.098
rwrist -3.73144
rhand -18.87 -40.4663
rfingers 7.12502
rthumb 7.43062 -70.3158
lclavicle 1.98785e-016 7.55382e-015
lhumerus -44.5337 -4.29315 91.3753
lradius 68.1687
lwrist -9.82318
lhand -25.3742 -15.7296
lfingers 7.12502
lthumb 1.15012 14.247
rfemur 5.9829 -9.41725 21.9388
rtibia 18.2983
rfoot -26.061 -9.98329
rtoes 7.56013
lfemur -26.6005 16.9137 -8.29683
ltibia 63.894
lfoot -13.1989 6.54066
ltoes -9.61875
